<svg width="522" height="522" viewBox="0 0 522 522" fill="none" xmlns="http://www.w3.org/2000/svg">
<g clip-path="url(#clip0_66_188)">
<path d="M412.176 398.507C404.016 406.994 396.295 412.467 390.195 416.791C318.487 467.618 233.639 452.802 215.606 449.184C188.977 443.841 137.504 433.513 100.291 390.281C43.9891 324.873 52.756 221.826 96.4273 153.802C104.415 141.36 146.611 72.3006 232.374 61.2257C284.277 54.5233 344.778 68.0413 388.592 104.304C480.561 180.422 474.014 334.195 412.176 398.507Z" fill="url(#paint0_linear_66_188)"/>
<path d="M224.672 422.936C222.164 377.734 205.4 336.5 145.887 307.166C145.887 307.166 136.65 418.048 224.672 422.936Z" fill="#BDD0FB"/>
<path d="M328.422 420.114C369.069 423.865 408.065 414.377 442.112 365.184C442.112 365.184 344.442 342.257 328.422 420.114Z" fill="#BDD0FB"/>
<path d="M229.385 334.451L220.838 411.099H319.991L307.076 334.451H229.385Z" fill="url(#paint1_linear_66_188)"/>
<path d="M62.8257 145.608V321.151C62.8257 335.591 74.3332 347.4 88.7692 347.773C152.886 349.426 377.136 353.435 438.171 352.535C448.661 352.381 457.159 343.986 457.462 333.499C458.639 292.718 460.55 194.653 453.476 149.126C451.987 139.538 443.894 132.369 434.196 132.059C380.475 130.34 142.755 124.883 81.7487 126.253C71.2271 126.489 62.8257 135.083 62.8257 145.608Z" fill="url(#paint2_linear_66_188)"/>
<path d="M73.8403 144.753V311.531C73.8403 319.962 80.6083 326.832 89.0387 326.958L429.39 331.163C437.748 331.288 444.599 324.564 444.63 316.205L445.199 150.917C445.222 144.94 440.46 140.043 434.485 139.898L86.0287 132.858C79.3457 132.695 73.8403 138.068 73.8403 144.753Z" fill="#91B3FA"/>
<path d="M322.442 422.241C366.042 400.598 399.678 366.551 403.43 295.309C403.43 295.309 289.951 333.195 322.442 422.241Z" fill="#7D97F4"/>
<path d="M341.348 426.781H196.232C192.289 426.781 189.329 423.974 190.091 420.959L191.953 413.595C192.513 411.38 194.949 409.755 197.843 409.664L337.741 405.299C340.764 405.205 343.441 406.809 344.1 409.111L347.457 420.841C348.329 423.888 345.354 426.781 341.348 426.781Z" fill="url(#paint3_linear_66_188)"/>
<path d="M377.331 73.6785C379.501 73.7812 381.691 73.98 383.839 74.2686C384.133 74.3081 384.421 74.2821 384.689 74.2015C385.423 73.9801 385.998 73.3474 386.106 72.5377C386.255 71.4337 385.48 70.418 384.376 70.2696C382.114 69.9658 379.807 69.7569 377.522 69.6487C376.409 69.596 375.464 70.4554 375.412 71.5684C375.359 72.6808 376.218 73.6256 377.331 73.6785Z" fill="url(#paint4_linear_66_188)"/>
<path d="M320.816 91.9776C320.045 91.1731 318.769 91.1458 317.964 91.917C316.315 93.4975 314.714 95.1689 313.206 96.883C312.471 97.7196 312.552 98.9938 313.388 99.7301C313.932 100.208 314.66 100.341 315.305 100.146C315.654 100.041 315.978 99.8413 316.236 99.5479C317.669 97.919 319.189 96.3319 320.756 94.8298C321.56 94.0586 321.587 92.7813 320.816 91.9776Z" fill="url(#paint5_linear_66_188)"/>
<path d="M296.079 137.566C294.976 137.417 293.959 138.189 293.808 139.293C293.5 141.557 293.287 143.861 293.175 146.142C293.12 147.255 293.978 148.201 295.091 148.257C295.328 148.268 295.558 148.238 295.773 148.173C296.567 147.934 297.162 147.216 297.205 146.341C297.311 144.174 297.514 141.987 297.806 139.837C297.957 138.733 297.183 137.716 296.079 137.566Z" fill="url(#paint6_linear_66_188)"/>
<path d="M309.22 105.186C308.29 104.572 307.038 104.829 306.426 105.76C305.166 107.669 303.975 109.653 302.885 111.655C302.352 112.633 302.713 113.858 303.692 114.391C304.185 114.659 304.741 114.701 305.239 114.55C305.729 114.403 306.164 114.069 306.428 113.584C307.464 111.681 308.596 109.795 309.794 107.981C310.407 107.05 310.15 105.799 309.22 105.186Z" fill="url(#paint7_linear_66_188)"/>
<path d="M360.244 74.7961C362.383 74.4136 364.562 74.1176 366.721 73.918C366.859 73.9054 366.992 73.8784 367.12 73.8398C368.019 73.5685 368.634 72.6942 368.544 71.7231C368.441 70.614 367.459 69.7976 366.349 69.9003C364.077 70.1108 361.784 70.4223 359.533 70.8247C358.434 71.0162 357.707 72.0694 357.902 73.166C358.099 74.2622 359.147 74.9921 360.244 74.7961Z" fill="url(#paint8_linear_66_188)"/>
<path d="M300.832 120.636C299.789 120.244 298.626 120.771 298.233 121.812C297.428 123.95 296.706 126.149 296.085 128.348C295.783 129.421 296.407 130.535 297.479 130.837C297.863 130.946 298.252 130.935 298.607 130.828C299.245 130.636 299.774 130.132 299.969 129.444C300.557 127.353 301.244 125.265 302.009 123.235C302.401 122.192 301.875 121.029 300.832 120.636Z" fill="url(#paint9_linear_66_188)"/>
<path d="M295.233 155.122C294.119 155.226 293.305 156.204 293.405 157.313C293.61 159.581 293.917 161.874 294.315 164.128C294.51 165.224 295.557 165.956 296.654 165.762C296.734 165.748 296.811 165.729 296.887 165.707C297.852 165.416 298.469 164.442 298.289 163.425C297.909 161.283 297.618 159.105 297.423 156.949C297.323 155.84 296.342 155.022 295.233 155.122Z" fill="url(#paint10_linear_66_188)"/>
<path d="M328.305 88.3385C328.514 88.2756 328.716 88.1769 328.902 88.0424C330.661 86.7735 332.496 85.5657 334.357 84.4531C335.313 83.8807 335.625 82.6418 335.053 81.6859C334.481 80.7293 333.244 80.4231 332.286 80.9904C330.326 82.1626 328.394 83.4344 326.542 84.7706C325.639 85.4225 325.435 86.6832 326.087 87.587C326.603 88.3036 327.504 88.5801 328.305 88.3385Z" fill="url(#paint11_linear_66_188)"/>
<path d="M343.616 79.7308C343.685 79.7103 343.753 79.6857 343.82 79.6578C345.817 78.8152 347.877 78.0475 349.942 77.3766C351.002 77.033 351.582 75.8952 351.238 74.8352C350.898 73.7895 349.786 73.2108 348.738 73.5268C348.724 73.5309 348.71 73.5351 348.697 73.54C346.522 74.2455 344.354 75.0534 342.252 75.9399C341.226 76.3737 340.745 77.5567 341.178 78.5834C341.582 79.5419 342.642 80.0248 343.616 79.7308Z" fill="url(#paint12_linear_66_188)"/>
<path d="M300.84 173.701C300.503 172.653 299.38 172.045 298.331 172.362C298.318 172.366 298.306 172.369 298.293 172.373C297.227 172.695 296.659 173.879 297.001 174.939C297.704 177.119 298.526 179.351 299.408 181.452C299.811 182.413 300.867 182.881 301.843 182.586C301.91 182.566 301.967 182.51 302.033 182.482C303.061 182.051 303.546 180.874 303.115 179.847C302.277 177.851 301.508 175.772 300.84 173.701Z" fill="url(#paint13_linear_66_188)"/>
<path d="M399.837 76.0422C400.182 74.9834 399.602 73.8448 398.543 73.5C397.502 73.1612 396.438 72.8386 395.378 72.541C394.305 72.2375 393.191 72.8639 392.89 73.9368C392.588 75.0089 393.213 76.1231 394.286 76.4244C395.293 76.7082 396.305 77.0143 397.294 77.3367C397.701 77.4691 398.119 77.4647 398.499 77.35C399.11 77.1659 399.625 76.6955 399.837 76.0422Z" fill="url(#paint14_linear_66_188)"/>
<path d="M366.183 226.338C364.058 226.13 361.916 225.828 359.818 225.441C358.721 225.239 357.67 225.963 357.468 227.059C357.266 228.155 357.991 229.206 359.086 229.408C361.296 229.816 363.552 230.134 365.79 230.353C366.06 230.38 366.323 230.352 366.569 230.278C367.328 230.049 367.912 229.381 367.994 228.543C368.103 227.434 367.292 226.447 366.183 226.338Z" fill="url(#paint15_linear_66_188)"/>
<path d="M449.413 120.197C449.852 121.101 450.876 121.53 451.809 121.248C451.91 121.218 452.011 121.179 452.109 121.131C453.111 120.645 453.53 119.438 453.043 118.436C452.565 117.451 452.058 116.459 451.537 115.488C451.01 114.507 449.791 114.137 448.805 114.666C447.824 115.194 447.456 116.416 447.983 117.398C448.478 118.32 448.96 119.262 449.413 120.197Z" fill="url(#paint16_linear_66_188)"/>
<path d="M458.58 144.176C457.475 144.284 456.659 145.27 456.767 146.379C456.975 148.506 457.092 150.665 457.12 152.796C457.133 153.91 458.048 154.802 459.162 154.788C459.356 154.785 459.543 154.756 459.72 154.703C460.559 154.449 461.165 153.665 461.153 152.745C461.125 150.501 461.001 148.228 460.783 145.989C460.675 144.88 459.689 144.068 458.58 144.176Z" fill="url(#paint17_linear_66_188)"/>
<path d="M458.785 161.478C457.681 161.339 456.671 162.123 456.532 163.228C456.266 165.344 455.906 167.477 455.461 169.568C455.229 170.657 455.924 171.728 457.013 171.96C457.358 172.033 457.7 172.014 458.014 171.919C458.696 171.713 459.248 171.153 459.407 170.407C459.875 168.206 460.255 165.96 460.535 163.731C460.674 162.625 459.891 161.616 458.785 161.478Z" fill="url(#paint18_linear_66_188)"/>
<path d="M445.167 194.738C444.022 196.538 442.787 198.314 441.494 200.016C440.821 200.903 440.994 202.168 441.881 202.842C442.415 203.248 443.088 203.346 443.685 203.166C444.079 203.048 444.44 202.808 444.707 202.456C446.067 200.665 447.367 198.796 448.572 196.901C449.169 195.961 448.892 194.714 447.951 194.117C447.009 193.519 445.763 193.796 445.167 194.738Z" fill="url(#paint19_linear_66_188)"/>
<path d="M421.482 218.393C419.676 219.536 417.801 220.613 415.909 221.595C414.921 222.108 414.535 223.326 415.049 224.315C415.503 225.19 416.509 225.592 417.419 225.317C417.538 225.281 417.655 225.234 417.769 225.175C419.76 224.141 421.735 223.007 423.638 221.804C424.58 221.209 424.861 219.963 424.265 219.021C423.67 218.079 422.425 217.8 421.482 218.393Z" fill="url(#paint20_linear_66_188)"/>
<path d="M434.629 207.88C433.116 209.391 431.524 210.854 429.896 212.228C429.045 212.946 428.937 214.219 429.655 215.071C430.191 215.705 431.034 215.926 431.781 215.701C432.036 215.624 432.281 215.494 432.498 215.311C434.212 213.865 435.888 212.325 437.481 210.733C438.268 209.946 438.269 208.669 437.482 207.881C436.694 207.092 435.417 207.092 434.629 207.88Z" fill="url(#paint21_linear_66_188)"/>
<path d="M455.176 178.398C454.126 178.019 452.971 178.563 452.593 179.61C451.869 181.616 451.049 183.618 450.157 185.562C449.693 186.575 450.137 187.772 451.15 188.237C451.615 188.45 452.119 188.472 452.573 188.335C453.108 188.174 453.573 187.792 453.824 187.245C454.763 185.199 455.625 183.092 456.387 180.981C456.766 179.933 456.223 178.777 455.176 178.398Z" fill="url(#paint22_linear_66_188)"/>
<path d="M389.936 229.652C387.814 229.915 385.657 230.092 383.526 230.177C382.414 230.218 381.546 231.159 381.59 232.273C381.635 233.385 382.573 234.252 383.686 234.208C385.93 234.119 388.2 233.933 390.433 233.655C390.549 233.641 390.662 233.617 390.769 233.584C391.693 233.305 392.309 232.394 392.186 231.404C392.049 230.299 391.042 229.514 389.936 229.652Z" fill="url(#paint23_linear_66_188)"/>
<path d="M406.336 225.761C404.338 226.472 402.278 227.109 400.191 227.663C399.119 227.944 398.473 229.054 398.759 230.131C399.045 231.207 400.149 231.849 401.226 231.563C402.13 231.324 403.027 231.07 403.916 230.802C405.183 230.419 406.453 230.002 407.689 229.562C408.739 229.189 409.287 228.035 408.913 226.985C408.54 225.935 407.387 225.389 406.336 225.761Z" fill="url(#paint24_linear_66_188)"/>
<path d="M457.155 128.634C456.81 127.575 455.679 126.971 454.613 127.341C453.553 127.685 452.974 128.824 453.319 129.883C453.494 130.421 453.664 130.962 453.828 131.506C454.281 133.009 454.694 134.546 455.056 136.076C455.312 137.161 456.399 137.832 457.483 137.576C457.523 137.566 457.564 137.555 457.604 137.543C458.616 137.238 459.229 136.192 458.982 135.149C458.602 133.539 458.167 131.921 457.691 130.341C457.518 129.768 457.339 129.2 457.155 128.634Z" fill="url(#paint25_linear_66_188)"/>
<path d="M349.654 222.831C348.669 222.505 347.673 222.152 346.692 221.782C345.649 221.388 344.486 221.915 344.093 222.957C343.699 224 344.225 225.163 345.268 225.557C346.3 225.947 347.349 226.319 348.386 226.662C348.795 226.797 349.217 226.794 349.601 226.678C350.208 226.495 350.72 226.028 350.935 225.38C351.285 224.322 350.711 223.181 349.654 222.831Z" fill="url(#paint26_linear_66_188)"/>
<path d="M439.756 133.401L428.401 131.8C426.228 126.964 423.327 122.587 419.87 118.763L405.213 121.58L394.012 133.725L403.9 155.135L378.873 154.299L364.245 165.191L366.231 184.411L350.848 181.428L345.611 186.622L342.656 197.672C342.552 198.061 342.706 198.472 343.039 198.698L354.45 206.394C354.784 206.619 355.223 206.608 355.545 206.366L364.712 199.464C369.721 201.368 375.07 202.488 380.581 202.698L386.319 212.626C386.52 212.975 386.921 213.157 387.316 213.08L400.827 210.454C401.222 210.377 401.524 210.058 401.58 209.66L403.182 198.305C408.213 196.045 412.752 193.003 416.683 189.361L427.769 192.326C428.157 192.43 428.569 192.276 428.794 191.943L436.49 180.531C436.716 180.198 436.704 179.758 436.462 179.437L429.56 170.27C431.465 165.261 432.584 159.912 432.794 154.401L442.723 148.662C443.071 148.461 443.254 148.061 443.177 147.666L440.55 134.155C440.473 133.76 440.154 133.457 439.756 133.401Z" fill="url(#paint27_linear_66_188)"/>
<path d="M387.05 162.044C382.195 164.327 376.477 162.586 373.642 158.2L371.052 160.132C374.417 165.165 380.726 167.442 386.526 165.693C387.166 165.5 387.8 165.257 388.423 164.965C392.623 162.991 395.366 159.161 396.143 154.911L392.869 154.794C392.166 157.868 390.118 160.602 387.05 162.044Z" fill="url(#paint28_linear_66_188)"/>
<path d="M415.237 142.297C413.072 135.126 408.637 128.933 402.487 124.536L401.384 125.732C407.327 129.928 411.612 135.872 413.692 142.766C414.011 143.824 414.279 144.904 414.492 146.004C415.711 152.273 415.026 158.479 412.841 164.021C408.912 173.986 400.138 181.808 388.866 183.998C386.596 184.44 384.283 184.64 381.991 184.593C381.546 184.585 381.177 184.938 381.168 185.383C381.166 185.47 381.178 185.555 381.202 185.634C381.3 185.96 381.6 186.199 381.958 186.206C382.094 186.209 382.231 186.135 382.367 186.136C382.437 186.137 382.508 186.062 382.578 186.062C382.602 186.062 382.627 186.062 382.651 186.062C384.463 186.062 386.283 185.991 388.082 185.701C388.447 185.642 388.811 185.615 389.174 185.544C390.326 185.32 391.459 185.058 392.567 184.724C400.042 182.469 406.462 177.761 410.886 171.201C415.967 163.668 417.811 154.611 416.077 145.691C415.852 144.537 415.572 143.407 415.237 142.297Z" fill="url(#paint29_linear_66_188)"/>
<path d="M354.508 175.676L352.616 157.363L367.244 146.471L391.627 147.286C391.923 147.296 392.125 146.991 392.001 146.722L382.382 125.897L393.584 113.752L408.241 110.935C408.102 110.781 407.968 110.623 407.828 110.471L410.793 99.3851C410.897 98.9967 410.743 98.5852 410.41 98.3603L398.998 90.6634C398.665 90.4383 398.225 90.4499 397.904 90.6917L388.736 97.5938C383.727 95.6891 378.379 94.5697 372.868 94.3597L367.129 84.4308C366.928 84.0826 366.528 83.9004 366.133 83.9771L352.622 86.6037C352.227 86.6805 351.924 86.9993 351.868 87.3976L350.267 98.753C345.236 101.012 340.696 104.054 336.765 107.696L325.68 104.731C325.291 104.627 324.88 104.782 324.655 105.115L316.958 116.526C316.733 116.86 316.744 117.299 316.986 117.62L323.888 126.788C321.983 131.797 320.864 137.146 320.654 142.656L310.725 148.395C310.377 148.596 310.195 148.996 310.272 149.391L312.898 162.902C312.975 163.297 313.294 163.6 313.692 163.656L325.048 165.257C327.307 170.288 330.349 174.828 333.991 178.759L333.982 178.794L339.218 173.6L353.706 176.409C354.152 176.496 354.555 176.128 354.508 175.676Z" fill="url(#paint30_linear_66_188)"/>
<path d="M362.013 150.372C361.756 149.975 361.515 149.565 361.308 149.126C358.821 143.833 361.104 137.501 366.398 135.014C366.878 134.788 367.368 134.601 367.867 134.451C370.033 133.797 372.342 133.855 374.508 134.636C377.174 135.597 379.305 137.539 380.51 140.104C381.556 142.33 381.749 144.737 381.239 146.967L384.514 147.083C385.014 144.346 384.702 141.435 383.431 138.731C381.86 135.386 379.079 132.853 375.603 131.6C372.127 130.346 368.37 130.52 365.025 132.093C358.121 135.338 355.143 143.594 358.387 150.499C358.688 151.138 359.041 151.734 359.422 152.304L362.013 150.372Z" fill="url(#paint31_linear_66_188)"/>
<path d="M390.076 116.156C382.542 111.074 373.481 109.23 364.561 110.965C346.153 114.543 334.078 132.437 337.658 150.851C337.879 151.986 338.156 153.106 338.488 154.206C339.927 158.973 342.393 163.372 345.725 167.079C346.023 167.412 346.532 167.437 346.865 167.14C347.105 166.925 347.185 166.597 347.098 166.307C347.065 166.197 347.007 166.092 346.925 166.001C343.752 162.47 341.403 158.28 340.033 153.739C339.717 152.691 339.452 151.624 339.242 150.543C335.833 133.004 347.322 115.962 364.869 112.549C373.366 110.897 381.997 112.653 389.173 117.494C389.37 117.627 389.561 117.767 389.754 117.904L390.857 116.708C390.598 116.522 390.341 116.335 390.076 116.156Z" fill="url(#paint32_linear_66_188)"/>
<path d="M123.522 153.743C144.708 153.743 161.882 136.569 161.882 115.384C161.882 94.1987 144.708 77.0247 123.522 77.0247C102.337 77.0247 85.1631 94.1987 85.1631 115.384C85.1631 136.569 102.337 153.743 123.522 153.743Z" fill="url(#paint33_linear_66_188)"/>
<path d="M124.696 122.533L121.022 122.445C119.998 122.421 119.15 121.545 119.097 120.514L117.752 94.6285C117.724 94.095 117.916 93.6551 118.282 93.2942C118.648 92.9336 119.155 92.8175 119.685 92.8544L126.012 93.2951C126.531 93.3312 127.026 93.5032 127.382 93.9085C127.737 94.3132 127.923 94.7988 127.896 95.3203L126.588 120.734C126.535 121.751 125.705 122.557 124.696 122.533Z" fill="url(#paint34_linear_66_188)"/>
<path d="M119.026 128.856C119.943 127.98 121.234 127.556 122.894 127.582C124.605 127.61 125.902 128.061 126.79 128.934C127.676 129.804 128.118 131.077 128.118 132.752C128.118 134.368 127.666 135.618 126.761 136.504C125.853 137.394 124.565 137.839 122.894 137.839C121.254 137.839 119.968 137.379 119.041 136.458C118.111 135.534 117.645 134.27 117.645 132.669C117.645 131.006 118.106 129.735 119.026 128.856Z" fill="url(#paint35_linear_66_188)"/>
<path d="M268.366 98.0994L165.938 270.202C163.689 273.98 166.629 278.603 171.304 278.642L374.347 280.313C379.04 280.351 382.067 275.747 379.857 271.93L279.242 98.1571C276.929 94.1622 270.729 94.1292 268.366 98.0994Z" fill="url(#paint36_linear_66_188)"/>
<path d="M268.884 108.381L175.859 264.684C173.817 268.115 176.486 272.314 180.732 272.349L365.135 273.866C369.397 273.901 372.146 269.719 370.14 266.253L278.762 108.433C276.661 104.805 271.029 104.775 268.884 108.381Z" fill="url(#paint37_linear_66_188)"/>
<path d="M252.893 215.484L248.348 215.543V223.658L240.506 223.789V215.645L224.124 215.858V210.036L240.949 184.494L248.348 184.502V209.115L252.893 209.07V215.484ZM240.506 209.195V202.528C240.506 201.417 240.549 199.805 240.636 197.69C240.722 195.575 240.792 194.348 240.844 194.007L240.636 194.007C239.993 195.479 239.219 196.917 238.314 198.32L231.294 209.287L240.506 209.195Z" fill="url(#paint38_linear_66_188)"/>
<path d="M282.866 203.811C282.866 210.543 281.817 215.539 279.715 218.806C277.609 222.078 274.359 223.754 269.953 223.829C265.665 223.901 262.421 222.271 260.231 218.932C258.036 215.587 256.937 210.612 256.937 204.013C256.937 197.13 258.005 192.054 260.141 188.79C262.272 185.533 265.546 183.909 269.953 183.915C274.224 183.921 277.441 185.617 279.615 188.997C281.784 192.372 282.866 197.308 282.866 203.811ZM264.791 203.952C264.791 208.719 265.185 212.131 265.975 214.185C266.764 216.238 268.091 217.251 269.953 217.225C271.778 217.199 273.095 216.14 273.904 214.046C274.713 211.955 275.117 208.563 275.117 203.871C275.117 199.127 274.708 195.719 273.891 193.649C273.074 191.577 271.761 190.542 269.953 190.545C268.108 190.548 266.786 191.591 265.988 193.673C265.19 195.758 264.791 199.185 264.791 203.952Z" fill="url(#paint39_linear_66_188)"/>
<path d="M314.034 214.689L309.738 214.745V222.634L302.327 222.758V214.841L286.851 215.043V209.385L302.746 184.56L309.738 184.567V208.496L314.034 208.453V214.689ZM302.327 208.571V202.091C302.327 201.011 302.368 199.443 302.45 197.388C302.532 195.333 302.598 194.139 302.647 193.808L302.45 193.808C301.843 195.239 301.112 196.636 300.257 198L293.624 208.659L302.327 208.571Z" fill="url(#paint40_linear_66_188)"/>
<path d="M235.199 257.988L223.1 258.375V236.761L235.199 236.49V240.225L227.57 240.409V245.145L234.67 244.959V248.695L227.57 248.892V254.455L235.199 254.224V257.988Z" fill="url(#paint41_linear_66_188)"/>
<path d="M244.679 249.47V257.684L240.277 257.825V236.377L246.321 236.242C249.128 236.179 251.2 236.66 252.543 237.686C253.883 238.71 254.552 240.295 254.552 242.442C254.552 243.695 254.22 244.819 253.555 245.813C252.889 246.809 251.947 247.6 250.726 248.189C253.822 252.895 255.834 255.928 256.769 257.296L251.938 257.451L247.014 249.404L244.679 249.47ZM244.679 245.781L246.094 245.743C247.48 245.706 248.502 245.44 249.161 244.945C249.819 244.451 250.148 243.693 250.148 242.67C250.148 241.657 249.812 240.945 249.14 240.533C248.467 240.121 247.424 239.931 246.009 239.965L244.679 239.997L244.679 245.781Z" fill="url(#paint42_linear_66_188)"/>
<path d="M264.383 248.912V257.052L260.06 257.191V235.934L265.996 235.802C268.753 235.74 270.789 236.218 272.107 237.234C273.424 238.249 274.081 239.82 274.081 241.948C274.081 243.191 273.755 244.304 273.102 245.29C272.448 246.276 271.522 247.061 270.323 247.644C273.364 252.309 275.341 255.315 276.259 256.671L271.513 256.824L266.677 248.847L264.383 248.912ZM264.383 245.255L265.773 245.218C267.135 245.182 268.138 244.918 268.786 244.428C269.432 243.938 269.756 243.187 269.756 242.173C269.756 241.17 269.425 240.464 268.765 240.055C268.104 239.646 267.079 239.458 265.69 239.492L264.383 239.523V245.255Z" fill="url(#paint43_linear_66_188)"/>
<path d="M297.555 245.514C297.555 248.972 296.745 251.655 295.122 253.563C293.497 255.475 291.165 256.48 288.119 256.578C285.064 256.676 282.713 255.817 281.069 253.997C279.424 252.175 278.6 249.509 278.6 246.001C278.6 242.493 279.426 239.793 281.076 237.905C282.724 236.02 285.082 235.044 288.146 234.976C291.201 234.909 293.531 235.783 295.143 237.596C296.751 239.408 297.555 242.046 297.555 245.514ZM283.055 245.908C283.055 248.258 283.479 250.015 284.327 251.179C285.173 252.342 286.438 252.898 288.119 252.846C291.481 252.744 293.159 250.34 293.159 245.633C293.159 240.918 291.49 238.599 288.146 238.679C286.465 238.72 285.196 239.347 284.34 240.56C283.483 241.776 283.055 243.558 283.055 245.908Z" fill="url(#paint44_linear_66_188)"/>
<path d="M306.483 247.719V255.702L302.325 255.836V234.989L308.035 234.861C310.688 234.802 312.646 235.271 313.914 236.269C315.181 237.265 315.813 238.806 315.813 240.894C315.813 242.112 315.499 243.205 314.871 244.171C314.242 245.138 313.351 245.907 312.198 246.478C315.123 251.055 317.025 254.005 317.908 255.336L313.342 255.482L308.69 247.656L306.483 247.719ZM306.483 244.133L307.821 244.097C309.13 244.062 310.096 243.804 310.719 243.324C311.341 242.843 311.652 242.107 311.652 241.113C311.652 240.128 311.334 239.436 310.698 239.035C310.063 238.634 309.077 238.449 307.741 238.481L306.483 238.511L306.483 244.133Z" fill="url(#paint45_linear_66_188)"/>
<path d="M147.145 438.132C147.145 438.132 146.125 443.902 145.625 449.615C145.43 451.848 147.151 453.786 149.391 453.879C156.998 454.196 173.271 454.812 179.11 454.552C179.988 454.513 180.562 453.614 180.237 452.798C179.965 452.113 179.44 451.56 178.771 451.253L151.891 438.899L147.145 438.132Z" fill="url(#paint46_linear_66_188)"/>
<path d="M146.31 434.74L147.129 441.643C147.129 441.643 151.837 443.835 155.053 441.367L153.103 433.675L146.31 434.74Z" fill="url(#paint47_linear_66_188)"/>
<path d="M146.925 304.967C146.571 306.769 145.026 394.921 154.449 434.425C154.603 435.07 154.276 435.734 153.662 435.985C152.217 436.576 149.384 437.431 145.988 437.545C144.937 437.58 143.994 436.896 143.697 435.887C141.004 426.722 128.097 380.8 126.413 336.932C124.532 287.914 126.413 335.263 126.413 335.263L127.517 304.963L146.925 304.967Z" fill="url(#paint48_linear_66_188)"/>
<path d="M116.224 441.142C116.224 441.142 114.601 444.055 113.031 451.797C112.747 453.195 113.724 454.533 115.143 454.673C117.655 454.92 121.523 455.237 124.62 455.216C126.048 455.206 127.163 453.963 126.99 452.545C126.647 449.719 125.578 445.083 122.276 441.47L116.224 441.142Z" fill="url(#paint49_linear_66_188)"/>
<path d="M114.799 432.264L116.713 442.702C116.713 442.702 118.605 444.11 122.348 443.089L121.434 431.858L114.799 432.264Z" fill="url(#paint50_linear_66_188)"/>
<path d="M109.629 307.672C101.923 354.181 111.301 422.624 114.464 436.02C114.658 436.841 115.32 437.469 116.151 437.607C117.563 437.841 119.887 438.032 122.179 437.366C122.968 437.137 123.523 436.425 123.555 435.603C123.979 424.773 123.216 358.286 130.396 332.01C130.76 330.678 131.573 329.517 132.699 328.717L146.636 318.809L147.705 302.793L109.629 307.672Z" fill="url(#paint51_linear_66_188)"/>
<path d="M178.242 241.373C177.07 249.705 175.834 251.62 174.873 251.67C171.814 251.828 172.431 233.042 161.245 223.54C154.18 217.538 144.529 217.044 136.958 217.744C140.49 230.414 144.023 243.084 147.556 255.754C149.099 259.54 155.825 274.85 171.043 279.497C174.142 280.443 178.753 281.851 183.042 280.008C191.508 276.369 195.478 261.457 191.693 242.785C189.913 242.125 187.45 241.42 178.242 241.373Z" fill="url(#paint52_linear_66_188)"/>
<path d="M175.545 208.882L176.946 216.8C179.196 226.485 179.41 234.558 178.242 241.374C180.175 241.453 182.204 241.59 184.319 241.798C186.926 242.055 189.389 242.395 191.693 242.786C190.476 232.936 183.922 216.58 183.922 216.58C179.969 210.875 179.498 214.588 175.545 208.882Z" fill="url(#paint53_linear_66_188)"/>
<path d="M191.556 192.197C189.97 192.155 188.45 192.837 187.427 194.05L177.437 205.887C177.437 205.887 175.618 205.516 175.448 202.034C175.278 198.552 171.579 198.133 171.579 198.133C171.579 198.133 172.112 202.989 173.128 210.176C173.709 214.286 176.138 217.286 178.112 219.103L183.892 217.114C189.193 209.536 192.484 201.184 194.313 192.269L191.556 192.197Z" fill="url(#paint54_linear_66_188)"/>
<path d="M97.4023 224.402C98.0683 224.227 102.618 219.526 103.302 219.395C114.517 217.258 142.51 209.719 161.245 223.54C161.292 223.939 161.321 224.258 161.34 224.522C161.522 224.769 161.771 225.182 162.112 225.845C163.882 229.274 166.005 232.606 168.436 235.72C167.901 236.25 167.456 236.873 167.133 237.567C162.631 247.211 145.565 285.723 148.564 309.275C148.719 310.491 147.892 311.612 146.677 311.78C140.052 312.696 120.323 314.93 110.131 310.721C109.538 310.476 109.158 309.894 109.167 309.253C109.234 304.527 109.035 284.019 101.516 259.299C101.236 258.377 101.007 257.442 100.824 256.497C100.732 256.687 100.645 256.875 100.555 257.064L97.4023 224.402Z" fill="url(#paint55_linear_66_188)"/>
<path d="M114.517 217.258C93.603 218.787 89.2324 230.739 74.7788 223.431L77.3382 245.812C82.6977 251.732 90.7896 255.762 100.986 257.273L114.517 217.258Z" fill="url(#paint56_linear_66_188)"/>
<path d="M128.808 197.016C125.224 204.16 123.728 211.436 123.279 218.21C124.05 218.497 134.336 225.632 141.22 218.726C139.749 213.986 139.992 206.85 140.367 199.53L128.808 197.016Z" fill="url(#paint57_linear_66_188)"/>
<path d="M147.466 178.236C147.663 178.555 152.804 202.796 152.804 202.796L138.9 205.436L130.615 183.185C130.615 183.185 144.168 172.898 147.466 178.236Z" fill="url(#paint58_linear_66_188)"/>
<path d="M135.923 185.163C135.55 185.672 135.434 186.321 135.608 186.927L139.002 198.808C139.054 198.988 139.127 199.158 139.226 199.317C139.775 200.194 141.745 202.843 144.4 200.668C146.664 198.814 148.769 197.141 150.657 196.724C151.759 196.481 152.842 197.202 153.072 198.307C153.546 200.583 154.409 205.195 154.6 209.401C154.648 210.455 153.867 211.363 152.82 211.492C150.057 211.834 144.64 212.339 140.107 211.769C139.362 211.676 138.733 211.182 138.462 210.482C137.273 207.401 133.903 198.779 132.577 196.491C131.346 194.366 128.074 194.165 126.568 194.192C125.997 194.202 125.452 193.977 125.055 193.566C123.866 192.331 121.962 189.54 125.192 186.546C125.995 185.801 126.028 184.532 125.3 183.713C123.996 182.247 122.802 179.831 125.288 177.104C127.805 174.343 130.842 174.849 132.791 175.636C133.653 175.984 134.684 175.76 135.249 175.021C135.501 174.692 135.886 174.458 136.476 174.494C137.59 174.563 138.543 173.783 138.619 172.67C138.75 170.761 139.65 168.477 142.973 167.661C149.067 166.165 152.443 172.171 152.549 176.505C152.655 180.839 145.955 182.085 142.093 181.557C139.255 181.169 136.948 183.76 135.923 185.163Z" fill="url(#paint59_linear_66_188)"/>
<path d="M134.661 200.999C134.661 200.999 133.367 193.324 130.276 192.767C127.184 192.21 123.997 194.583 126.836 198.974C130.367 204.435 134.661 200.999 134.661 200.999Z" fill="url(#paint60_linear_66_188)"/>
<path d="M129.563 173.39C130.102 173.367 130.687 173.419 131.333 173.555C132.802 173.867 134.76 174.622 134.25 176.036C133.484 178.159 129.511 176.175 127.396 179.598C125.532 182.613 127.058 185.888 126.487 189.139C126.21 190.72 125.194 193.067 123.781 193.991C123.15 194.404 118.162 195.194 117.889 194.308C117.889 194.308 116.503 189.81 116.502 189.809C115.255 185.761 120.047 179.018 122.518 176.291C124.427 174.185 127.015 173.494 129.563 173.39Z" fill="url(#paint61_linear_66_188)"/>
<path d="M124.835 189.632L120.063 193.604C110.914 197.495 104.266 202.081 99.4491 207.042C97.7048 203.761 94.8811 199.968 90.3794 197.009C99.6021 192.466 106.468 190.579 106.468 190.579C125.08 183.093 124.835 189.632 124.835 189.632Z" fill="url(#paint62_linear_66_188)"/>
<path d="M99.4488 207.042C84.4068 222.533 88.8023 214.661 88.6827 227.864C88.6381 232.787 84.366 251.584 84.366 251.584C38.3634 231.711 76.7535 204.585 90.3791 197.009C94.8808 199.968 97.7045 203.761 99.4488 207.042Z" fill="url(#paint63_linear_66_188)"/>
</g>
<defs>
<linearGradient id="paint0_linear_66_188" x1="508.106" y1="571.987" x2="155.446" y2="134.005" gradientUnits="userSpaceOnUse">
<stop stop-color="#DAE3FE"/>
<stop offset="1" stop-color="#E9EFFD"/>
</linearGradient>
<linearGradient id="paint1_linear_66_188" x1="290.623" y1="338.691" x2="359.581" y2="191.199" gradientUnits="userSpaceOnUse">
<stop stop-color="#09005D"/>
<stop offset="1" stop-color="#1A0F91"/>
</linearGradient>
<linearGradient id="paint2_linear_66_188" x1="260.72" y1="72.3874" x2="260.72" y2="228.499" gradientUnits="userSpaceOnUse">
<stop stop-color="#09005D"/>
<stop offset="1" stop-color="#1A0F91"/>
</linearGradient>
<linearGradient id="paint3_linear_66_188" x1="304.209" y1="594.754" x2="280.265" y2="477.909" gradientUnits="userSpaceOnUse">
<stop stop-color="#09005D"/>
<stop offset="1" stop-color="#1A0F91"/>
</linearGradient>
<linearGradient id="paint4_linear_66_188" x1="385.49" y1="18.8241" x2="361.553" y2="288.183" gradientUnits="userSpaceOnUse">
<stop stop-color="#4042E2"/>
<stop offset="1" stop-color="#4F52FF"/>
</linearGradient>
<linearGradient id="paint5_linear_66_188" x1="324.363" y1="13.3923" x2="300.427" y2="282.744" gradientUnits="userSpaceOnUse">
<stop stop-color="#4042E2"/>
<stop offset="1" stop-color="#4F52FF"/>
</linearGradient>
<linearGradient id="paint6_linear_66_188" x1="307.114" y1="11.8579" x2="283.177" y2="281.212" gradientUnits="userSpaceOnUse">
<stop stop-color="#4042E2"/>
<stop offset="1" stop-color="#4F52FF"/>
</linearGradient>
<linearGradient id="paint7_linear_66_188" x1="315.019" y1="12.5616" x2="291.083" y2="281.914" gradientUnits="userSpaceOnUse">
<stop stop-color="#4042E2"/>
<stop offset="1" stop-color="#4F52FF"/>
</linearGradient>
<linearGradient id="paint8_linear_66_188" x1="368.106" y1="17.2808" x2="344.17" y2="286.629" gradientUnits="userSpaceOnUse">
<stop stop-color="#4042E2"/>
<stop offset="1" stop-color="#4F52FF"/>
</linearGradient>
<linearGradient id="paint9_linear_66_188" x1="309.175" y1="12.0414" x2="285.239" y2="281.395" gradientUnits="userSpaceOnUse">
<stop stop-color="#4042E2"/>
<stop offset="1" stop-color="#4F52FF"/>
</linearGradient>
<linearGradient id="paint10_linear_66_188" x1="309.048" y1="12.0294" x2="285.112" y2="281.384" gradientUnits="userSpaceOnUse">
<stop stop-color="#4042E2"/>
<stop offset="1" stop-color="#4F52FF"/>
</linearGradient>
<linearGradient id="paint11_linear_66_188" x1="336.749" y1="14.4933" x2="312.813" y2="283.845" gradientUnits="userSpaceOnUse">
<stop stop-color="#4042E2"/>
<stop offset="1" stop-color="#4F52FF"/>
</linearGradient>
<linearGradient id="paint12_linear_66_188" x1="351.583" y1="15.812" x2="327.646" y2="285.162" gradientUnits="userSpaceOnUse">
<stop stop-color="#4042E2"/>
<stop offset="1" stop-color="#4F52FF"/>
</linearGradient>
<linearGradient id="paint13_linear_66_188" x1="314.743" y1="12.5353" x2="290.807" y2="281.891" gradientUnits="userSpaceOnUse">
<stop stop-color="#4042E2"/>
<stop offset="1" stop-color="#4F52FF"/>
</linearGradient>
<linearGradient id="paint14_linear_66_188" x1="401.239" y1="20.2241" x2="377.302" y2="289.582" gradientUnits="userSpaceOnUse">
<stop stop-color="#4042E2"/>
<stop offset="1" stop-color="#4F52FF"/>
</linearGradient>
<linearGradient id="paint15_linear_66_188" x1="381.331" y1="18.4486" x2="357.394" y2="287.811" gradientUnits="userSpaceOnUse">
<stop stop-color="#4042E2"/>
<stop offset="1" stop-color="#4F52FF"/>
</linearGradient>
<linearGradient id="paint16_linear_66_188" x1="458.461" y1="28.2331" x2="434.524" y2="297.588" gradientUnits="userSpaceOnUse">
<stop stop-color="#4042E2"/>
<stop offset="1" stop-color="#4F52FF"/>
</linearGradient>
<linearGradient id="paint17_linear_66_188" x1="469.642" y1="29.2268" x2="445.705" y2="298.582" gradientUnits="userSpaceOnUse">
<stop stop-color="#4042E2"/>
<stop offset="1" stop-color="#4F52FF"/>
</linearGradient>
<linearGradient id="paint18_linear_66_188" x1="470.199" y1="29.2768" x2="446.262" y2="298.63" gradientUnits="userSpaceOnUse">
<stop stop-color="#4042E2"/>
<stop offset="1" stop-color="#4F52FF"/>
</linearGradient>
<linearGradient id="paint19_linear_66_188" x1="460.106" y1="28.3806" x2="436.169" y2="297.733" gradientUnits="userSpaceOnUse">
<stop stop-color="#4042E2"/>
<stop offset="1" stop-color="#4F52FF"/>
</linearGradient>
<linearGradient id="paint20_linear_66_188" x1="437.065" y1="26.3343" x2="413.129" y2="295.685" gradientUnits="userSpaceOnUse">
<stop stop-color="#4042E2"/>
<stop offset="1" stop-color="#4F52FF"/>
</linearGradient>
<linearGradient id="paint21_linear_66_188" x1="449.982" y1="27.4812" x2="426.046" y2="296.833" gradientUnits="userSpaceOnUse">
<stop stop-color="#4042E2"/>
<stop offset="1" stop-color="#4F52FF"/>
</linearGradient>
<linearGradient id="paint22_linear_66_188" x1="466.958" y1="28.9892" x2="443.021" y2="298.343" gradientUnits="userSpaceOnUse">
<stop stop-color="#4042E2"/>
<stop offset="1" stop-color="#4F52FF"/>
</linearGradient>
<linearGradient id="paint23_linear_66_188" x1="405.415" y1="23.5235" x2="381.479" y2="292.871" gradientUnits="userSpaceOnUse">
<stop stop-color="#4042E2"/>
<stop offset="1" stop-color="#4F52FF"/>
</linearGradient>
<linearGradient id="paint24_linear_66_188" x1="421.958" y1="24.9926" x2="398.022" y2="294.342" gradientUnits="userSpaceOnUse">
<stop stop-color="#4042E2"/>
<stop offset="1" stop-color="#4F52FF"/>
</linearGradient>
<linearGradient id="paint25_linear_66_188" x1="465.334" y1="28.8436" x2="441.397" y2="298.2" gradientUnits="userSpaceOnUse">
<stop stop-color="#4042E2"/>
<stop offset="1" stop-color="#4F52FF"/>
</linearGradient>
<linearGradient id="paint26_linear_66_188" x1="365.906" y1="17.0811" x2="341.969" y2="286.439" gradientUnits="userSpaceOnUse">
<stop stop-color="#4042E2"/>
<stop offset="1" stop-color="#4F52FF"/>
</linearGradient>
<linearGradient id="paint27_linear_66_188" x1="262.905" y1="581.021" x2="304.488" y2="452.071" gradientUnits="userSpaceOnUse">
<stop stop-color="#09005D"/>
<stop offset="1" stop-color="#1A0F91"/>
</linearGradient>
<linearGradient id="paint28_linear_66_188" x1="371.052" y1="160.535" x2="396.144" y2="160.535" gradientUnits="userSpaceOnUse">
<stop stop-color="#4042E2"/>
<stop offset="1" stop-color="#4F52FF"/>
</linearGradient>
<linearGradient id="paint29_linear_66_188" x1="381.168" y1="155.371" x2="416.712" y2="155.371" gradientUnits="userSpaceOnUse">
<stop stop-color="#4042E2"/>
<stop offset="1" stop-color="#4F52FF"/>
</linearGradient>
<linearGradient id="paint30_linear_66_188" x1="216.696" y1="566.122" x2="258.279" y2="437.171" gradientUnits="userSpaceOnUse">
<stop stop-color="#09005D"/>
<stop offset="1" stop-color="#1A0F91"/>
</linearGradient>
<linearGradient id="paint31_linear_66_188" x1="357.075" y1="141.538" x2="384.741" y2="141.538" gradientUnits="userSpaceOnUse">
<stop stop-color="#4042E2"/>
<stop offset="1" stop-color="#4F52FF"/>
</linearGradient>
<linearGradient id="paint32_linear_66_188" x1="337.029" y1="138.838" x2="390.857" y2="138.838" gradientUnits="userSpaceOnUse">
<stop stop-color="#4042E2"/>
<stop offset="1" stop-color="#4F52FF"/>
</linearGradient>
<linearGradient id="paint33_linear_66_188" x1="148.309" y1="18.9438" x2="112.332" y2="158.921" gradientUnits="userSpaceOnUse">
<stop stop-color="#FE7062"/>
<stop offset="1" stop-color="#FF928E"/>
</linearGradient>
<linearGradient id="paint34_linear_66_188" x1="250.669" y1="-47.7242" x2="194.539" y2="20.1349" gradientUnits="userSpaceOnUse">
<stop stop-color="#E1473D"/>
<stop offset="1" stop-color="#E9605A"/>
</linearGradient>
<linearGradient id="paint35_linear_66_188" x1="263.402" y1="-37.1918" x2="207.271" y2="30.6672" gradientUnits="userSpaceOnUse">
<stop stop-color="#E1473D"/>
<stop offset="1" stop-color="#E9605A"/>
</linearGradient>
<linearGradient id="paint36_linear_66_188" x1="242.279" y1="100.603" x2="277.094" y2="297.617" gradientUnits="userSpaceOnUse">
<stop stop-color="#09005D"/>
<stop offset="1" stop-color="#1A0F91"/>
</linearGradient>
<linearGradient id="paint37_linear_66_188" x1="334.025" y1="126.558" x2="153.868" y2="543.809" gradientUnits="userSpaceOnUse">
<stop stop-color="#FE7062"/>
<stop offset="1" stop-color="#FF928E"/>
</linearGradient>
<linearGradient id="paint38_linear_66_188" x1="222.014" y1="252.867" x2="314.019" y2="29.1509" gradientUnits="userSpaceOnUse">
<stop stop-color="#09005D"/>
<stop offset="1" stop-color="#1A0F91"/>
</linearGradient>
<linearGradient id="paint39_linear_66_188" x1="245.729" y1="262.62" x2="337.734" y2="38.9038" gradientUnits="userSpaceOnUse">
<stop stop-color="#09005D"/>
<stop offset="1" stop-color="#1A0F91"/>
</linearGradient>
<linearGradient id="paint40_linear_66_188" x1="274.734" y1="274.548" x2="366.739" y2="50.8321" gradientUnits="userSpaceOnUse">
<stop stop-color="#09005D"/>
<stop offset="1" stop-color="#1A0F91"/>
</linearGradient>
<linearGradient id="paint41_linear_66_188" x1="226.185" y1="254.582" x2="318.19" y2="30.8661" gradientUnits="userSpaceOnUse">
<stop stop-color="#09005D"/>
<stop offset="1" stop-color="#1A0F91"/>
</linearGradient>
<linearGradient id="paint42_linear_66_188" x1="242.567" y1="261.319" x2="334.572" y2="37.6027" gradientUnits="userSpaceOnUse">
<stop stop-color="#09005D"/>
<stop offset="1" stop-color="#1A0F91"/>
</linearGradient>
<linearGradient id="paint43_linear_66_188" x1="259.175" y1="268.149" x2="351.179" y2="44.4326" gradientUnits="userSpaceOnUse">
<stop stop-color="#09005D"/>
<stop offset="1" stop-color="#1A0F91"/>
</linearGradient>
<linearGradient id="paint44_linear_66_188" x1="276.018" y1="275.076" x2="368.021" y2="51.364" gradientUnits="userSpaceOnUse">
<stop stop-color="#09005D"/>
<stop offset="1" stop-color="#1A0F91"/>
</linearGradient>
<linearGradient id="paint45_linear_66_188" x1="294.661" y1="282.743" x2="386.666" y2="59.0265" gradientUnits="userSpaceOnUse">
<stop stop-color="#09005D"/>
<stop offset="1" stop-color="#1A0F91"/>
</linearGradient>
<linearGradient id="paint46_linear_66_188" x1="178.259" y1="430.156" x2="79.8275" y2="537.222" gradientUnits="userSpaceOnUse">
<stop stop-color="#09005D"/>
<stop offset="1" stop-color="#1A0F91"/>
</linearGradient>
<linearGradient id="paint47_linear_66_188" x1="146.31" y1="438.108" x2="155.053" y2="438.108" gradientUnits="userSpaceOnUse">
<stop stop-color="#FEBBBA"/>
<stop offset="1" stop-color="#FF928E"/>
</linearGradient>
<linearGradient id="paint48_linear_66_188" x1="-371.452" y1="970.72" x2="-277.206" y2="860.261" gradientUnits="userSpaceOnUse">
<stop stop-color="#020039"/>
<stop offset="1" stop-color="#090056"/>
</linearGradient>
<linearGradient id="paint49_linear_66_188" x1="156.177" y1="409.855" x2="57.7456" y2="516.921" gradientUnits="userSpaceOnUse">
<stop stop-color="#09005D"/>
<stop offset="1" stop-color="#1A0F91"/>
</linearGradient>
<linearGradient id="paint50_linear_66_188" x1="114.799" y1="437.659" x2="122.348" y2="437.659" gradientUnits="userSpaceOnUse">
<stop stop-color="#FEBBBA"/>
<stop offset="1" stop-color="#FF928E"/>
</linearGradient>
<linearGradient id="paint51_linear_66_188" x1="-384.664" y1="959.447" x2="-290.419" y2="848.988" gradientUnits="userSpaceOnUse">
<stop stop-color="#020039"/>
<stop offset="1" stop-color="#090056"/>
</linearGradient>
<linearGradient id="paint52_linear_66_188" x1="177.641" y1="205.52" x2="143.641" y2="301.295" gradientUnits="userSpaceOnUse">
<stop stop-color="#4F52FF"/>
<stop offset="1" stop-color="#4042E2"/>
</linearGradient>
<linearGradient id="paint53_linear_66_188" x1="146.079" y1="176.554" x2="234.502" y2="308.983" gradientUnits="userSpaceOnUse">
<stop stop-color="#FEBBBA"/>
<stop offset="1" stop-color="#FF928E"/>
</linearGradient>
<linearGradient id="paint54_linear_66_188" x1="160.17" y1="167.145" x2="248.593" y2="299.574" gradientUnits="userSpaceOnUse">
<stop stop-color="#FEBBBA"/>
<stop offset="1" stop-color="#FF928E"/>
</linearGradient>
<linearGradient id="paint55_linear_66_188" x1="148.548" y1="195.193" x2="114.548" y2="290.967" gradientUnits="userSpaceOnUse">
<stop stop-color="#4F52FF"/>
<stop offset="1" stop-color="#4042E2"/>
</linearGradient>
<linearGradient id="paint56_linear_66_188" x1="108.91" y1="181.121" x2="74.9097" y2="276.895" gradientUnits="userSpaceOnUse">
<stop stop-color="#4F52FF"/>
<stop offset="1" stop-color="#4042E2"/>
</linearGradient>
<linearGradient id="paint57_linear_66_188" x1="142.018" y1="194.724" x2="106.844" y2="260.75" gradientUnits="userSpaceOnUse">
<stop stop-color="#FEBBBA"/>
<stop offset="1" stop-color="#FF928E"/>
</linearGradient>
<linearGradient id="paint58_linear_66_188" x1="94.3066" y1="185.374" x2="162.34" y2="193.533" gradientUnits="userSpaceOnUse">
<stop stop-color="#FEBBBA"/>
<stop offset="1" stop-color="#FF928E"/>
</linearGradient>
<linearGradient id="paint59_linear_66_188" x1="129.087" y1="200.405" x2="157.973" y2="182.552" gradientUnits="userSpaceOnUse">
<stop stop-color="#09005D"/>
<stop offset="1" stop-color="#1A0F91"/>
</linearGradient>
<linearGradient id="paint60_linear_66_188" x1="93.3999" y1="192.93" x2="161.434" y2="201.089" gradientUnits="userSpaceOnUse">
<stop stop-color="#FEBBBA"/>
<stop offset="1" stop-color="#FF928E"/>
</linearGradient>
<linearGradient id="paint61_linear_66_188" x1="133.373" y1="178.071" x2="78.4825" y2="215.284" gradientUnits="userSpaceOnUse">
<stop stop-color="#FEBBBA"/>
<stop offset="1" stop-color="#FF928E"/>
</linearGradient>
<linearGradient id="paint62_linear_66_188" x1="132.276" y1="176.965" x2="75.174" y2="215.677" gradientUnits="userSpaceOnUse">
<stop stop-color="#FEBBBA"/>
<stop offset="1" stop-color="#FF928E"/>
</linearGradient>
<linearGradient id="paint63_linear_66_188" x1="95.5597" y1="176.382" x2="61.5598" y2="272.156" gradientUnits="userSpaceOnUse">
<stop stop-color="#4F52FF"/>
<stop offset="1" stop-color="#4042E2"/>
</linearGradient>
<clipPath id="clip0_66_188">
<rect width="522" height="522" fill="white"/>
</clipPath>
</defs>
</svg>
