<svg width="154" height="119" viewBox="0 0 154 119" fill="none" xmlns="http://www.w3.org/2000/svg">
<path d="M113.042 20.0533C114.179 20.0533 115.051 20.2844 115.655 20.7467C116.259 21.1733 116.686 21.7244 116.935 22.4C117.219 23.04 117.379 23.7689 117.415 24.5867C117.486 25.4044 117.522 26.1867 117.522 26.9333V62.1333C117.522 62.6311 117.397 63.0756 117.148 63.4667C116.899 63.8222 116.508 64 115.975 64H111.388C110.855 64 110.464 63.8222 110.215 63.4667C110.002 63.0756 109.895 62.6311 109.895 62.1333V30.0267H109.628L100.348 52.7467C100.028 53.5644 99.6906 54.3644 99.335 55.1467C98.9794 55.8933 98.535 56.5689 98.0017 57.1733C97.4683 57.7422 96.8106 58.2044 96.0283 58.56C95.2461 58.9156 94.2506 59.0933 93.0417 59.0933C92.1883 59.0933 91.4239 59.0222 90.7483 58.88C90.0728 58.7022 89.4506 58.4 88.8817 57.9733C88.3128 57.5111 87.7617 56.8711 87.2283 56.0533C86.7306 55.2 86.215 54.0978 85.6817 52.7467L76.4017 30.0267H76.135V62.1333C76.135 62.6311 76.0106 63.0756 75.7617 63.4667C75.5483 63.8222 75.175 64 74.6417 64H70.055C69.5217 64 69.1306 63.8222 68.8817 63.4667C68.6328 63.0756 68.5083 62.6311 68.5083 62.1333V26.9333C68.5083 26.08 68.5439 25.2444 68.615 24.4267C68.6861 23.5733 68.8639 22.8267 69.1483 22.1867C69.4328 21.5467 69.8772 21.0311 70.4817 20.64C71.0861 20.2489 71.9394 20.0533 73.0417 20.0533H77.9483C78.9083 20.0533 79.6728 20.1778 80.2417 20.4267C80.8106 20.64 81.2728 20.9778 81.6283 21.44C81.9839 21.8667 82.2683 22.4 82.4817 23.04C82.695 23.6444 82.9617 24.32 83.2817 25.0667L92.775 48.8533H93.3617L102.962 25.0667C103.282 24.32 103.548 23.6444 103.762 23.04C103.975 22.4 104.259 21.8667 104.615 21.44C104.971 21.0133 105.415 20.6756 105.948 20.4267C106.517 20.1778 107.282 20.0533 108.242 20.0533H113.042Z" fill="#000024"/>
<path d="M150.195 21.336H150.193C150.193 21.336 150.193 21.336 150.195 21.336ZM141.779 41.256C128.644 61.82 107.161 75.712 85.1267 81.416C77.3773 83.4213 69.3387 84.7146 61.3733 83.9893C55.2267 83.4306 47.628 81.9506 42.7147 77.484C42.7147 77.484 63.952 107.121 113.268 93.116C170.767 76.7866 150.28 21.568 150.195 21.336C150.609 22.456 148.484 30.76 141.779 41.256Z" fill="url(#paint0_linear_1304_716)"/>
<path d="M62.4467 108.244C62.4467 113.671 66.844 118.068 72.2693 118.068C77.6946 118.068 82.092 113.671 82.092 108.244C82.092 102.82 77.6946 98.4227 72.2693 98.4227C66.844 98.4227 62.4467 102.82 62.4467 108.244Z" fill="url(#paint1_linear_1304_716)"/>
<path d="M107.351 108.244C107.351 113.671 111.747 118.068 117.172 118.068C122.597 118.068 126.996 113.671 126.996 108.244C126.996 102.82 122.597 98.4227 117.172 98.4227C111.747 98.4227 107.351 102.82 107.351 108.244Z" fill="url(#paint2_linear_1304_716)"/>
<path d="M21.752 29.5147C26.4973 47.6947 27.5013 68.2307 54.2387 78.8973C80.9747 89.564 99.176 71.8334 99.176 71.8334C99.176 71.8334 79.3733 81.276 62.4893 60.008C44.6147 37.492 51.52 8.02269 0 6.00002C0 6.00002 16.7173 10.2414 21.752 29.5147Z" fill="url(#paint3_linear_1304_716)"/>
<path d="M124.885 42.9173C124.615 45.2587 124.136 47.5493 123.339 49.7707C122.784 51.3147 121.605 55.0587 120.083 55.9053C127.079 52.0187 132.413 45.8227 135.541 38.4853C138.211 32.228 141.961 21.7227 134.708 17.2453C132.089 15.628 128.969 15.0907 125.935 14.5853C123.936 14.252 121.937 13.9187 119.94 13.5867C123.613 22.9093 126.056 32.8467 124.885 42.9173Z" fill="url(#paint4_linear_1304_716)"/>
<defs>
<linearGradient id="paint0_linear_1304_716" x1="146.99" y1="20.8034" x2="82.9859" y2="86.6899" gradientUnits="userSpaceOnUse">
<stop stop-color="#4A9DE0"/>
<stop offset="0.99959" stop-color="#4AE090"/>
<stop offset="1" stop-color="#4AE090"/>
</linearGradient>
<linearGradient id="paint1_linear_1304_716" x1="72.585" y1="85.7002" x2="72.1143" y2="119.349" gradientUnits="userSpaceOnUse">
<stop stop-color="#4A9DE0"/>
<stop offset="0.99959" stop-color="#4AE090"/>
<stop offset="1" stop-color="#4AE090"/>
</linearGradient>
<linearGradient id="paint2_linear_1304_716" x1="117.51" y1="83.1097" x2="117.039" y2="118.171" gradientUnits="userSpaceOnUse">
<stop stop-color="#4A9DE0"/>
<stop offset="0.99959" stop-color="#4AE090"/>
<stop offset="1" stop-color="#4AE090"/>
</linearGradient>
<linearGradient id="paint3_linear_1304_716" x1="86.3119" y1="88.0953" x2="33.3208" y2="34.8123" gradientUnits="userSpaceOnUse">
<stop stop-color="#4A9DE0"/>
<stop offset="0.99959" stop-color="#4AE090"/>
<stop offset="1" stop-color="#4AE090"/>
</linearGradient>
<linearGradient id="paint4_linear_1304_716" x1="120.436" y1="61.4448" x2="128.593" y2="24.4229" gradientUnits="userSpaceOnUse">
<stop stop-color="#4A9DE0"/>
<stop offset="0.99959" stop-color="#4AE090"/>
<stop offset="1" stop-color="#4AE090"/>
</linearGradient>
</defs>
</svg>
